<svg width="95" height="13" viewBox="0 0 95 13" fill="none" xmlns="http://www.w3.org/2000/svg">
<path d="M6.00556 12.08C5.26956 12.08 4.5709 11.9307 3.90956 11.632C3.2589 11.3333 2.6829 10.9227 2.18156 10.4C1.6909 9.86667 1.3069 9.248 1.02956 8.544C0.752229 7.84 0.613563 7.07733 0.613563 6.256C0.613563 5.47733 0.752229 4.74667 1.02956 4.064C1.3069 3.37067 1.69623 2.76267 2.19756 2.24C2.6989 1.71733 3.28556 1.30667 3.95756 1.008C4.62956 0.709333 5.36023 0.559999 6.14956 0.559999C7.21623 0.559999 8.12823 0.789333 8.88556 1.248C9.65356 1.696 10.2296 2.29333 10.6136 3.04L8.96556 4.256C8.67756 3.69067 8.27223 3.25867 7.74956 2.96C7.23756 2.66133 6.67756 2.512 6.06956 2.512C5.58956 2.512 5.15223 2.61333 4.75756 2.816C4.3629 3.01867 4.02156 3.296 3.73356 3.648C3.44556 4 3.22156 4.40533 3.06156 4.864C2.91223 5.32267 2.83756 5.808 2.83756 6.32C2.83756 6.864 2.91756 7.36533 3.07756 7.824C3.24823 8.28267 3.4829 8.68267 3.78156 9.024C4.0909 9.36533 4.44823 9.63733 4.85356 9.84C5.2589 10.032 5.7069 10.128 6.19756 10.128C6.77356 10.128 7.3229 9.97867 7.84556 9.68C8.3789 9.38133 8.8749 8.944 9.33356 8.368V10.544C8.38423 11.568 7.2749 12.08 6.00556 12.08ZM9.17356 7.776H6.88556V6.16H10.9976V12H9.17356V7.776ZM16.5593 12.16C15.8873 12.16 15.2793 12.048 14.7353 11.824C14.1913 11.5893 13.7273 11.2747 13.3433 10.88C12.9593 10.4747 12.6606 10.016 12.4473 9.504C12.2446 8.98133 12.1433 8.432 12.1433 7.856C12.1433 7.056 12.3193 6.32533 12.6713 5.664C13.034 5.00267 13.546 4.47467 14.2073 4.08C14.8793 3.67467 15.6686 3.472 16.5753 3.472C17.4926 3.472 18.2766 3.67467 18.9273 4.08C19.578 4.47467 20.074 5.00267 20.4153 5.664C20.7673 6.31467 20.9433 7.01867 20.9433 7.776C20.9433 7.904 20.938 8.03733 20.9273 8.176C20.9166 8.304 20.906 8.41067 20.8953 8.496H14.4153C14.458 8.92267 14.5806 9.296 14.7833 9.616C14.9966 9.936 15.2633 10.1813 15.5833 10.352C15.914 10.512 16.266 10.592 16.6393 10.592C17.066 10.592 17.466 10.4907 17.8393 10.288C18.2233 10.0747 18.4846 9.79733 18.6233 9.456L20.4633 9.968C20.2606 10.3947 19.9673 10.7733 19.5833 11.104C19.21 11.4347 18.7673 11.696 18.2553 11.888C17.7433 12.0693 17.178 12.16 16.5593 12.16ZM14.3673 7.136H18.7513C18.7086 6.70933 18.586 6.34133 18.3833 6.032C18.1913 5.712 17.9353 5.46667 17.6153 5.296C17.2953 5.11467 16.938 5.024 16.5433 5.024C16.1593 5.024 15.8073 5.11467 15.4873 5.296C15.178 5.46667 14.922 5.712 14.7193 6.032C14.5273 6.34133 14.41 6.70933 14.3673 7.136ZM27.1953 11.568C27.014 11.6427 26.7953 11.728 26.5393 11.824C26.2833 11.92 26.006 11.9947 25.7073 12.048C25.4193 12.112 25.126 12.144 24.8273 12.144C24.4326 12.144 24.07 12.0747 23.7393 11.936C23.4086 11.7973 23.142 11.5787 22.9393 11.28C22.7473 10.9707 22.6513 10.5707 22.6513 10.08V5.264H21.5473V3.616H22.6513V0.896H24.7953V3.616H26.5553V5.264H24.7953V9.36C24.806 9.648 24.886 9.856 25.0353 9.984C25.1846 10.112 25.3713 10.176 25.5953 10.176C25.8193 10.176 26.038 10.1387 26.2513 10.064C26.4646 9.98933 26.6353 9.92533 26.7633 9.872L27.1953 11.568ZM32.1557 12V3.616H34.2997V12H32.1557ZM32.1557 2.448V0.32H34.2997V2.448H32.1557ZM44.0258 12H41.8818V7.296C41.8818 6.624 41.7645 6.13333 41.5298 5.824C41.2951 5.51467 40.9698 5.36 40.5538 5.36C40.2658 5.36 39.9725 5.43467 39.6738 5.584C39.3858 5.73333 39.1245 5.94133 38.8898 6.208C38.6551 6.464 38.4845 6.76267 38.3778 7.104V12H36.2338V3.616H38.1698V5.168C38.3831 4.80533 38.6551 4.50133 38.9858 4.256C39.3165 4 39.6951 3.808 40.1218 3.68C40.5591 3.54133 41.0178 3.472 41.4978 3.472C42.0205 3.472 42.4471 3.568 42.7778 3.76C43.1191 3.94133 43.3751 4.192 43.5458 4.512C43.7271 4.82133 43.8498 5.17333 43.9138 5.568C43.9885 5.96267 44.0258 6.36267 44.0258 6.768V12ZM57.9691 2.576H54.3371V12H52.1451V2.576H48.5131V0.639999H57.9691V2.576ZM61.4652 12.16C60.7825 12.16 60.1692 12.048 59.6252 11.824C59.0812 11.5893 58.6172 11.2693 58.2332 10.864C57.8599 10.4587 57.5719 9.99467 57.3692 9.472C57.1665 8.94933 57.0652 8.4 57.0652 7.824C57.0652 7.23733 57.1665 6.68267 57.3692 6.16C57.5719 5.63733 57.8599 5.17333 58.2332 4.768C58.6172 4.36267 59.0812 4.048 59.6252 3.824C60.1692 3.58933 60.7825 3.472 61.4652 3.472C62.1479 3.472 62.7559 3.58933 63.2892 3.824C63.8332 4.048 64.2972 4.36267 64.6812 4.768C65.0652 5.17333 65.3532 5.63733 65.5452 6.16C65.7479 6.68267 65.8492 7.23733 65.8492 7.824C65.8492 8.4 65.7479 8.94933 65.5452 9.472C65.3532 9.99467 65.0652 10.4587 64.6812 10.864C64.3079 11.2693 63.8492 11.5893 63.3052 11.824C62.7612 12.048 62.1479 12.16 61.4652 12.16ZM59.2732 7.824C59.2732 8.31467 59.3692 8.752 59.5612 9.136C59.7532 9.50933 60.0145 9.80267 60.3452 10.016C60.6759 10.2293 61.0492 10.336 61.4652 10.336C61.8705 10.336 62.2385 10.2293 62.5692 10.016C62.8999 9.792 63.1612 9.49333 63.3532 9.12C63.5559 8.736 63.6572 8.29867 63.6572 7.808C63.6572 7.328 63.5559 6.896 63.3532 6.512C63.1612 6.128 62.8999 5.82933 62.5692 5.616C62.2385 5.40267 61.8705 5.296 61.4652 5.296C61.0492 5.296 60.6759 5.408 60.3452 5.632C60.0145 5.84533 59.7532 6.144 59.5612 6.528C59.3692 6.90133 59.2732 7.33333 59.2732 7.824ZM67.2163 8.864V3.616H69.3603V8.4C69.3603 9.04 69.4776 9.52533 69.7123 9.856C69.947 10.176 70.2936 10.336 70.7523 10.336C71.0296 10.336 71.3016 10.2827 71.5683 10.176C71.8456 10.0587 72.0963 9.888 72.3203 9.664C72.555 9.44 72.7523 9.15733 72.9123 8.816V3.616H75.0563V9.6C75.0563 9.824 75.0936 9.984 75.1683 10.08C75.2536 10.176 75.387 10.2347 75.5683 10.256V12C75.355 12.032 75.1736 12.0533 75.0243 12.064C74.8856 12.0853 74.7576 12.096 74.6403 12.096C74.2563 12.096 73.9416 12.0107 73.6963 11.84C73.4616 11.6587 73.323 11.4133 73.2803 11.104L73.2323 10.432C72.859 10.9973 72.379 11.4293 71.7923 11.728C71.2056 12.016 70.5603 12.16 69.8563 12.16C68.9923 12.16 68.3363 11.8827 67.8883 11.328C67.4403 10.7627 67.2163 9.94133 67.2163 8.864ZM81.0909 12.16C80.4083 12.16 79.7949 12.048 79.2509 11.824C78.7069 11.5893 78.2429 11.2693 77.8589 10.864C77.4749 10.448 77.1763 9.97867 76.9629 9.456C76.7603 8.93333 76.6589 8.384 76.6589 7.808C76.6589 7.01867 76.8349 6.29867 77.1869 5.648C77.5496 4.98667 78.0616 4.45867 78.7229 4.064C79.3843 3.66933 80.1683 3.472 81.0749 3.472C81.9816 3.472 82.7603 3.66933 83.4109 4.064C84.0616 4.45867 84.5469 4.976 84.8669 5.616L82.7709 6.256C82.5896 5.94667 82.3496 5.712 82.0509 5.552C81.7523 5.38133 81.4216 5.296 81.0589 5.296C80.6536 5.296 80.2803 5.40267 79.9389 5.616C79.6083 5.81867 79.3469 6.112 79.1549 6.496C78.9629 6.86933 78.8669 7.30667 78.8669 7.808C78.8669 8.29867 78.9629 8.736 79.1549 9.12C79.3576 9.49333 79.6243 9.792 79.9549 10.016C80.2856 10.2293 80.6536 10.336 81.0589 10.336C81.3149 10.336 81.5549 10.2933 81.7789 10.208C82.0136 10.1227 82.2216 10.0053 82.4029 9.856C82.5843 9.70667 82.7176 9.536 82.8029 9.344L84.8989 9.984C84.7069 10.4 84.4243 10.7733 84.0509 11.104C83.6883 11.4347 83.2563 11.696 82.7549 11.888C82.2643 12.0693 81.7096 12.16 81.0909 12.16ZM94.0102 12H91.8662V7.296C91.8662 6.64533 91.7382 6.16 91.4822 5.84C91.2369 5.52 90.8955 5.36 90.4582 5.36C90.2022 5.36 89.9302 5.43467 89.6422 5.584C89.3542 5.73333 89.0929 5.94133 88.8582 6.208C88.6342 6.464 88.4689 6.76267 88.3622 7.104V12H86.2182V0.32H88.3622V5.168C88.6715 4.63467 89.0929 4.21867 89.6262 3.92C90.1595 3.62133 90.7409 3.472 91.3702 3.472C91.9142 3.472 92.3569 3.568 92.6982 3.76C93.0395 3.94133 93.3062 4.192 93.4982 4.512C93.6902 4.82133 93.8235 5.17333 93.8982 5.568C93.9729 5.952 94.0102 6.352 94.0102 6.768V12Z" fill="white"/>
</svg>
