<svg width="1169" height="961" viewBox="0 0 1169 961" fill="none" xmlns="http://www.w3.org/2000/svg">
<g filter="url(#filter0_f_1_11)">
<mask id="mask0_1_11" style="mask-type:alpha" maskUnits="userSpaceOnUse" x="189" y="58" width="794" height="652">
<path d="M887.237 531.025C888.274 527.434 888.335 523.61 887.413 519.945C886.491 516.28 884.619 512.904 881.989 510.162L687.179 307.098L974.351 96.9769C978.107 94.0744 980.751 89.9694 981.856 85.3229C982.961 80.6763 982.463 75.7586 980.443 71.3614C978.422 66.9643 974.996 63.3437 970.717 61.0825C966.437 58.8213 961.553 58.0511 956.851 58.8959L296.628 218.056C292.944 218.816 289.551 220.551 286.799 223.082C284.047 225.612 282.035 228.846 280.971 232.45C279.907 236.055 279.829 239.899 280.745 243.587C281.661 247.275 283.539 250.672 286.184 253.43L478.082 453.459L197.305 671.013C193.656 674.004 191.139 678.153 190.153 682.799C189.167 687.446 189.769 692.323 191.864 696.654C193.959 700.985 197.426 704.522 201.714 706.702C206.002 708.882 210.863 709.58 215.526 708.684L871.789 545.487C875.442 544.688 878.796 542.928 881.51 540.387C884.224 537.846 886.2 534.616 887.237 531.025Z" fill="black"/>
</mask>
<g mask="url(#mask0_1_11)">
<g filter="url(#filter1_f_1_11)">
<path d="M433.407 236.728L577.984 291.188C459.449 605.862 509.942 917.166 690.552 985.2L595.665 1237.09C335.353 1139.04 262.563 690.266 433.407 236.728Z" fill="url(#paint0_linear_1_11)"/>
<path d="M508.772 265.117L630.291 310.892C530.685 575.316 573.125 836.975 724.894 894.145L645.14 1105.86C426.348 1023.45 365.202 646.252 508.772 265.117Z" fill="url(#paint1_linear_1_11)"/>
<path d="M376.455 388.032L521.032 442.493C639.567 127.819 882.899 -72.8039 1063.51 -4.76969L1158.39 -256.664C898.083 -354.721 547.3 -65.507 376.455 388.032Z" fill="url(#paint2_linear_1_11)"/>
<path d="M214.48 416.014L359.056 470.475C477.591 155.801 720.923 -44.8215 901.533 23.2127L996.419 -228.681C736.107 -326.739 385.324 -37.5246 214.48 416.014Z" fill="url(#paint3_linear_1_11)"/>
</g>
<g filter="url(#filter2_f_1_11)">
<path d="M554.292 332.567L614.672 355.312C565.167 486.73 586.255 616.741 661.684 645.154L622.056 750.353C513.341 709.401 482.941 521.98 554.292 332.567Z" fill="url(#paint4_linear_1_11)"/>
<path d="M954.553 449.052L946.064 551.052C724.113 532.578 534.9 621.196 524.297 748.587L346.585 733.795C361.87 550.146 634.639 422.425 954.553 449.052Z" fill="url(#paint5_linear_1_11)"/>
<path d="M983.552 338.524L975.062 440.523C753.111 422.05 563.899 510.668 553.296 638.058L375.583 623.267C390.869 439.618 663.637 311.896 983.552 338.524Z" fill="url(#paint6_linear_1_11)"/>
<path d="M676.871 504.456L668.381 606.456C446.431 587.982 257.218 676.6 246.615 803.991L68.9023 789.199C84.1879 605.55 356.956 477.829 676.871 504.456Z" fill="url(#paint7_linear_1_11)"/>
<path d="M530.506 395.757L590.886 418.502C640.391 287.083 742.014 203.297 817.442 231.71L857.07 126.511C748.355 85.559 601.857 206.344 530.506 395.757Z" fill="url(#paint8_linear_1_11)"/>
<path d="M671.906 331.252L732.286 353.996C781.79 222.578 883.414 138.792 958.842 167.205L998.47 62.0057C889.755 21.0537 743.257 141.839 671.906 331.252Z" fill="url(#paint9_linear_1_11)"/>
</g>
</g>
</g>
<defs>
<filter id="filter0_f_1_11" x="89.6908" y="-41.4377" width="992.74" height="850.502" filterUnits="userSpaceOnUse" color-interpolation-filters="sRGB">
<feFlood flood-opacity="0" result="BackgroundImageFix"/>
<feBlend mode="normal" in="SourceGraphic" in2="BackgroundImageFix" result="shape"/>
<feGaussianBlur stdDeviation="50" result="effect1_foregroundBlur_1_11"/>
</filter>
<filter id="filter1_f_1_11" x="57.4409" y="-432.803" width="1257.99" height="1826.94" filterUnits="userSpaceOnUse" color-interpolation-filters="sRGB">
<feFlood flood-opacity="0" result="BackgroundImageFix"/>
<feBlend mode="normal" in="SourceGraphic" in2="BackgroundImageFix" result="shape"/>
<feGaussianBlur stdDeviation="78.5193" result="effect1_foregroundBlur_1_11"/>
</filter>
<filter id="filter2_f_1_11" x="-9.61702" y="-24.4905" width="1086.61" height="907.001" filterUnits="userSpaceOnUse" color-interpolation-filters="sRGB">
<feFlood flood-opacity="0" result="BackgroundImageFix"/>
<feBlend mode="normal" in="SourceGraphic" in2="BackgroundImageFix" result="shape"/>
<feGaussianBlur stdDeviation="39.2597" result="effect1_foregroundBlur_1_11"/>
</filter>
<linearGradient id="paint0_linear_1_11" x1="669.475" y1="325.642" x2="359.626" y2="1148.19" gradientUnits="userSpaceOnUse">
<stop stop-color="#9403FD"/>
<stop offset="1" stop-color="#00ADFE"/>
</linearGradient>
<linearGradient id="paint1_linear_1_11" x1="707.15" y1="339.833" x2="446.754" y2="1031.1" gradientUnits="userSpaceOnUse">
<stop stop-color="#9403FD"/>
<stop offset="1" stop-color="#00ADFE"/>
</linearGradient>
<linearGradient id="paint2_linear_1_11" x1="612.519" y1="476.967" x2="922.367" y2="-345.583" gradientUnits="userSpaceOnUse">
<stop stop-color="#FF12DC"/>
<stop offset="1" stop-color="#FFB912"/>
</linearGradient>
<linearGradient id="paint3_linear_1_11" x1="450.543" y1="504.95" x2="760.391" y2="-317.601" gradientUnits="userSpaceOnUse">
<stop stop-color="#FF12DC"/>
<stop offset="1" stop-color="#FFB912"/>
</linearGradient>
<linearGradient id="paint4_linear_1_11" x1="652.881" y1="369.701" x2="523.478" y2="713.226" gradientUnits="userSpaceOnUse">
<stop stop-color="#9403FD"/>
<stop offset="1" stop-color="#00ADFE"/>
</linearGradient>
<linearGradient id="paint5_linear_1_11" x1="940.702" y1="615.563" x2="360.469" y2="567.268" gradientUnits="userSpaceOnUse">
<stop stop-color="#9403FD"/>
<stop offset="1" stop-color="#00ADFE"/>
</linearGradient>
<linearGradient id="paint6_linear_1_11" x1="969.7" y1="505.034" x2="389.468" y2="456.74" gradientUnits="userSpaceOnUse">
<stop stop-color="#9403FD"/>
<stop offset="1" stop-color="#00ADFE"/>
</linearGradient>
<linearGradient id="paint7_linear_1_11" x1="663.019" y1="670.966" x2="82.7868" y2="622.672" gradientUnits="userSpaceOnUse">
<stop stop-color="#9403FD"/>
<stop offset="1" stop-color="#00ADFE"/>
</linearGradient>
<linearGradient id="paint8_linear_1_11" x1="629.094" y1="432.899" x2="758.497" y2="89.3754" gradientUnits="userSpaceOnUse">
<stop stop-color="#FF12DC"/>
<stop offset="1" stop-color="#FFB912"/>
</linearGradient>
<linearGradient id="paint9_linear_1_11" x1="770.494" y1="368.394" x2="899.897" y2="24.8701" gradientUnits="userSpaceOnUse">
<stop stop-color="#FF12DC"/>
<stop offset="1" stop-color="#FFB912"/>
</linearGradient>
</defs>
</svg>
